<svg width="26" height="26" viewBox="0 0 26 26" fill="none" xmlns="http://www.w3.org/2000/svg">
<path d="M20.7609 15.2466L20.7611 15.2464C21.2043 14.8824 21.7283 14.6389 22.2848 14.537C22.8413 14.435 23.4139 14.4776 23.9507 14.6611L25.1422 15.0685L17.6858 23.8101C17.6858 23.8101 17.6857 23.8101 17.6857 23.8102C17.3657 24.1851 16.972 24.4847 16.5315 24.6895C16.091 24.8944 15.6135 25.0001 15.1308 25H15.1307H2.6C2.04719 25 1.51438 24.7749 1.11952 24.3699C0.724245 23.9645 0.5 23.412 0.5 22.8333V14.8333C0.5 14.6083 0.587281 14.3949 0.738761 14.2396C0.889822 14.0846 1.09197 14 1.3 14H11.609H11.6093C11.9525 13.9998 12.2909 14.0866 12.5947 14.2535C12.8986 14.4205 13.1588 14.6628 13.3513 14.9598L13.3517 14.9605L14.5058 16.7361C14.5059 16.7362 14.506 16.7363 14.506 16.7364C14.5224 16.7618 14.5325 16.7923 14.534 16.8248C14.5355 16.8574 14.5283 16.8892 14.514 16.9166C14.4997 16.944 14.4793 16.9652 14.4565 16.9792L14.707 17.3869L14.4565 16.9792C14.4337 16.9932 14.4088 17 14.3842 17H9.1H8.6V17.5V18.8333V19.3333H9.1H15.6H15.7788L15.9171 19.2199L20.7609 15.2466ZM22.0721 7.00979L22.072 7.00969L22.0639 7.01874L16.9 12.7528L11.7362 7.01744L11.7363 7.01734L11.7275 7.00807C11.2288 6.48182 10.9156 5.74608 10.9156 4.928C10.9156 4.11052 11.2284 3.37685 11.7283 2.84716L11.7296 2.84574C11.9804 2.57784 12.2807 2.36535 12.612 2.2203C12.9424 2.07562 13.2974 2.00083 13.6559 2C13.6567 2 13.6576 2 13.6585 2L13.6581 2L13.6572 2L13.656 1.99999L13.6604 2.00012C13.6668 2.00032 13.6788 2.00082 13.6963 2.00202C13.7312 2.00441 13.7874 2.00958 13.8619 2.02073C14.011 2.04303 14.2328 2.08916 14.5035 2.18446C15.0427 2.37429 15.7836 2.76167 16.5367 3.55818L16.9 3.94244L17.2633 3.55818C18.0164 2.76167 18.7573 2.37429 19.2965 2.18446C19.5672 2.08916 19.789 2.04303 19.9381 2.02073C20.0126 2.00958 20.0688 2.00441 20.1037 2.00202C20.1212 2.00082 20.1332 2.00032 20.1396 2.00012L20.144 1.99999L20.1428 2L20.1419 2L20.1416 2C20.1425 2 20.1433 2 20.1441 2C20.5026 2.00077 20.8577 2.07563 21.1881 2.2205C21.5194 2.36572 21.8195 2.57847 22.07 2.84668L22.0721 2.84888C22.5714 3.37685 22.8844 4.11156 22.8844 4.92933C22.8844 5.74711 22.5714 6.48182 22.0721 7.00979Z" stroke="black"/>
<path d="M22.9205 1.64929C22.5784 1.28493 22.1722 0.995898 21.7252 0.798699C21.2782 0.601499 20.799 0.5 20.3151 0.5C19.8312 0.5 19.3521 0.601499 18.905 0.798699C18.458 0.995898 18.0518 1.28493 17.7098 1.64929L16.9998 2.40512L16.2899 1.64929C15.5989 0.913658 14.6617 0.500381 13.6845 0.500381C12.7073 0.500381 11.7702 0.913658 11.0792 1.64929C10.3882 2.38493 10 3.38267 10 4.42302C10 5.46336 10.3882 6.4611 11.0792 7.19674L11.7891 7.95256L16.9998 13.5L22.2105 7.95256L22.9205 7.19674C23.2627 6.83255 23.5342 6.40014 23.7194 5.92422C23.9047 5.44829 24 4.93818 24 4.42302C24 3.90785 23.9047 3.39774 23.7194 2.92182C23.5342 2.44589 23.2627 2.01348 22.9205 1.64929Z" fill="#C7181C"/>
</svg>
