<svg width="34" height="34" viewBox="0 0 34 34" fill="none" xmlns="http://www.w3.org/2000/svg">
<path d="M27.2103 15.0303L18.6209 6.61988C18.4271 6.42733 18.1819 6.27175 17.9033 6.16451C17.6246 6.05728 17.3195 6.00108 17.0102 6.00002C16.7009 5.99895 16.3952 6.05306 16.1154 6.15838C15.8356 6.26371 15.5888 6.4176 15.3929 6.60882L6.78967 15.0303C6.27886 15.5259 5.9997 16.1479 6 16.7898V25.2334C6.00256 25.9665 6.36828 26.669 7.01726 27.1874C7.66623 27.7058 8.54569 27.998 9.46348 28H24.5365C25.4543 27.998 26.3338 27.7058 26.9827 27.1874C27.6317 26.669 27.9974 25.9665 28 25.2334V16.7898C28.0003 16.1479 27.7211 15.5259 27.2103 15.0303ZM14.2292 26.8934V20.8069C14.2292 20.3666 14.4482 19.9444 14.8379 19.6331C15.2276 19.3218 15.7562 19.1469 16.3073 19.1469H17.6927C18.2438 19.1469 18.7724 19.3218 19.1621 19.6331C19.5518 19.9444 19.7708 20.3666 19.7708 20.8069V26.8934H14.2292ZM26.6146 25.2334C26.611 25.6728 26.3909 26.0933 26.0019 26.404C25.613 26.7147 25.0865 26.8905 24.5365 26.8934H21.1562V20.8069C21.1562 20.0732 20.7913 19.3695 20.1417 18.8506C19.4922 18.3318 18.6113 18.0403 17.6927 18.0403H16.3073C15.3887 18.0403 14.5078 18.3318 13.8583 18.8506C13.2087 19.3695 12.8438 20.0732 12.8438 20.8069V26.8934H9.46348C8.91345 26.8905 8.38699 26.7147 7.99806 26.404C7.60913 26.0933 7.38902 25.6728 7.38539 25.2334V16.7898C7.3822 16.406 7.54905 16.0336 7.85642 15.7385L16.4736 7.31706C16.5345 7.25146 16.6139 7.19823 16.7053 7.1617C16.7968 7.12518 16.8977 7.10637 17 7.1068C17.1044 7.1055 17.2077 7.12386 17.3016 7.16039C17.3955 7.19692 17.4772 7.25059 17.5403 7.31706L26.1436 15.7385C26.4509 16.0336 26.6178 16.406 26.6146 16.7898V25.2334Z" fill="#1F1F1F"/>
</svg>
