<svg width="31" height="30" viewBox="0 0 31 30" fill="none" xmlns="http://www.w3.org/2000/svg">
<path d="M7.71599 17.2319C7.53851 17.3997 7.35558 17.5726 7.16742 17.7513L6.75 18.0991L6.33257 17.7513C6.14441 17.5726 5.96148 17.3997 5.784 17.2319C4.77231 16.2757 3.93778 15.4869 3.3227 14.7437C2.60367 13.8749 2.25 13.1427 2.25 12.375C2.25 11.1511 3.27614 10.125 4.5 10.125C5.24876 10.125 5.9694 10.4496 6.35957 10.9373L6.75 11.4254L7.14043 10.9373C7.5306 10.4496 8.25124 10.125 9 10.125C10.2389 10.125 11.25 11.041 11.25 12.375C11.25 13.1427 10.8963 13.8749 10.1773 14.7437C9.56222 15.4869 8.72768 16.2757 7.71599 17.2319ZM9.75 22.5C9.75 21.8368 10.0712 21.226 10.6785 20.661C11.2901 20.0919 12.1616 19.6005 13.1695 19.1989C15.1859 18.3953 17.6227 18 19.25 18C20.8773 18 23.3141 18.3953 25.3305 19.1989C26.3384 19.6005 27.2099 20.0919 27.8215 20.661C28.4288 21.226 28.75 21.8368 28.75 22.5V24.5H9.75V22.5ZM22.432 13.182C21.5881 14.0259 20.4435 14.5 19.25 14.5C18.0565 14.5 16.9119 14.0259 16.068 13.182C15.2241 12.3381 14.75 11.1935 14.75 10C14.75 8.80653 15.2241 7.66193 16.068 6.81802C16.9119 5.97411 18.0565 5.5 19.25 5.5C20.4435 5.5 21.5881 5.97411 22.432 6.81802C23.2759 7.66193 23.75 8.80653 23.75 10C23.75 11.1935 23.2759 12.3381 22.432 13.182Z" stroke="black"/>
<path d="M11.6518 9.88407C11.383 9.6038 11.0639 9.38146 10.7127 9.22977C10.3614 9.07808 9.98493 9 9.60474 9C9.22454 9 8.84806 9.07808 8.49682 9.22977C8.14558 9.38146 7.82645 9.6038 7.55767 9.88407L6.99986 10.4655L6.44205 9.88407C5.89913 9.3182 5.16278 9.00029 4.39498 9.00029C3.62719 9.00029 2.89084 9.3182 2.34792 9.88407C1.80501 10.4499 1.5 11.2174 1.5 12.0177C1.5 12.818 1.80501 13.5855 2.34792 14.1513L2.90573 14.7327L6.99986 19L11.094 14.7327L11.6518 14.1513C11.9207 13.8712 12.134 13.5386 12.2796 13.1725C12.4251 12.8064 12.5 12.414 12.5 12.0177C12.5 11.6214 12.4251 11.229 12.2796 10.8629C12.134 10.4968 11.9207 10.1642 11.6518 9.88407Z" fill="#C7181C"/>
</svg>
